# xmcd
#
# Track frame offsets:
#	150
#	15172
#	42180
#	70215
#	107350
#	139290
#	173060
#	190585
#	212442
#
# Disc length: 3242 seconds
#
# Revision: 2
# Processed by: cddbd v1.5.2PL0 Copyright (c) Steve Scherf et al.
# Submitted via: EZCDAudioConverter 2.1.7.1
#
DISCID=6a0ca809
DTITLE=V/A - Palm Beats V1
DYEAR=2004
DGENRE=
TTITLE0=Sly and Robbie - Capone's Theme
TTITLE1=Sidestepper - Linda Manigua [Quantum Dub Force Mix]
TTITLE2=Gigi - Gud Fella [Restless Soul Inspiration Information Mix]
TTITLE3=Baaba Maal - Fa Laay Fanaan [Ashley Beedle Afrikanz On Marz Remix]
TTITLE4=Da Lata - Golden [Bugz In The Attic Mix]
TTITLE5=Bostich - Polaris
TTITLE6=Da Lata - Alice (No Pais Da Malandragem)
TTITLE7=Sidestepper - Deja
TTITLE8=Jolly Mukherjee with The Madras Cinematic Orchestra - Bhatyali
EXTD=
EXTT0=
EXTT1=
EXTT2=
EXTT3=
EXTT4=
EXTT5=
EXTT6=
EXTT7=
EXTT8=
PLAYORDER=
